<svg width="14" height="14" viewBox="0 0 14 14" fill="none" xmlns="http://www.w3.org/2000/svg">
<g clip-path="url(#clip0_418_6029)">
<path d="M1.16667 8.75H6.41667V14H4.08333C3.30979 14 2.56792 13.6927 2.02094 13.1457C1.47396 12.5987 1.16667 11.8569 1.16667 11.0833V8.75ZM14 6.41667C14 6.72609 13.8771 7.02283 13.6583 7.24162C13.4395 7.46042 13.1428 7.58333 12.8333 7.58333H7.58333V5.22492C7.38733 5.24008 7.19192 5.25 7 5.25C6.80808 5.25 6.61267 5.24008 6.41667 5.22492V7.58333H1.16667C0.857247 7.58333 0.560501 7.46042 0.341709 7.24162C0.122916 7.02283 0 6.72609 0 6.41667C0 5.79783 0.245833 5.20434 0.683418 4.76675C1.121 4.32917 1.71449 4.08333 2.33333 4.08333H3.34717C3.01735 3.7926 2.75555 3.43285 2.58034 3.0296C2.40513 2.62635 2.3208 2.18949 2.33333 1.75C2.33333 1.59529 2.39479 1.44692 2.50419 1.33752C2.61358 1.22812 2.76196 1.16667 2.91667 1.16667C3.07138 1.16667 3.21975 1.22812 3.32915 1.33752C3.43854 1.44692 3.5 1.59529 3.5 1.75C3.5 3.2795 4.88308 3.80917 5.93483 3.99058C5.54663 3.30228 5.31295 2.53771 5.25 1.75C5.25 1.28587 5.43437 0.840752 5.76256 0.512563C6.09075 0.184374 6.53587 0 7 0C7.46413 0 7.90925 0.184374 8.23744 0.512563C8.56563 0.840752 8.75 1.28587 8.75 1.75C8.68705 2.53771 8.45336 3.30228 8.06517 3.99058C9.11692 3.80917 10.5 3.2795 10.5 1.75C10.5 1.59529 10.5615 1.44692 10.6709 1.33752C10.7802 1.22812 10.9286 1.16667 11.0833 1.16667C11.238 1.16667 11.3864 1.22812 11.4958 1.33752C11.6052 1.44692 11.6667 1.59529 11.6667 1.75C11.6792 2.18949 11.5949 2.62635 11.4197 3.0296C11.2445 3.43285 10.9827 3.7926 10.6528 4.08333H11.6667C12.2855 4.08333 12.879 4.32917 13.3166 4.76675C13.7542 5.20434 14 5.79783 14 6.41667ZM6.41667 1.75C6.48708 2.36998 6.68574 2.96853 7 3.50758C7.31426 2.96853 7.51291 2.36998 7.58333 1.75C7.58333 1.59529 7.52187 1.44692 7.41248 1.33752C7.30308 1.22812 7.15471 1.16667 7 1.16667C6.84529 1.16667 6.69692 1.22812 6.58752 1.33752C6.47812 1.44692 6.41667 1.59529 6.41667 1.75ZM7.58333 14H9.91667C10.2997 14 10.679 13.9246 11.0328 13.778C11.3867 13.6314 11.7082 13.4166 11.9791 13.1457C12.2499 12.8749 12.4647 12.5534 12.6113 12.1995C12.7579 11.8456 12.8333 11.4664 12.8333 11.0833V8.75H7.58333V14Z" fill="white"/>
</g>
<defs>
<clipPath id="clip0_418_6029">
<rect width="14" height="14" fill="white"/>
</clipPath>
</defs>
</svg>
