<svg width="30" height="31" viewBox="0 0 30 31" fill="none" xmlns="http://www.w3.org/2000/svg">
<path d="M26.05 6.26252C25.4116 5.62378 24.6535 5.11708 23.8192 4.77138C22.9849 4.42568 22.0906 4.24774 21.1875 4.24774C20.2844 4.24774 19.3901 4.42568 18.5558 4.77138C17.7215 5.11708 16.9634 5.62378 16.325 6.26252L15 7.58752L13.675 6.26252C12.3854 4.97291 10.6363 4.24841 8.8125 4.24841C6.9887 4.24841 5.23961 4.97291 3.95 6.26252C2.66038 7.55214 1.93588 9.30123 1.93588 11.125C1.93588 12.9488 2.66038 14.6979 3.95 15.9875L5.275 17.3125L15 27.0375L24.725 17.3125L26.05 15.9875C26.6887 15.3491 27.1954 14.591 27.5411 13.7567C27.8868 12.9224 28.0648 12.0281 28.0648 11.125C28.0648 10.2219 27.8868 9.32765 27.5411 8.49333C27.1954 7.65901 26.6887 6.90097 26.05 6.26252V6.26252Z" stroke="white" stroke-width="2" stroke-linecap="round" stroke-linejoin="round"/>
</svg>
