<svg width="14" height="14" viewBox="0 0 14 14" fill="none" xmlns="http://www.w3.org/2000/svg">
<g clip-path="url(#clip0_418_6021)">
<path d="M8.75 10.5H0V2.33331C0 1.86918 0.184374 1.42406 0.512563 1.09588C0.840752 0.767687 1.28587 0.583313 1.75 0.583313H7C7.46413 0.583313 7.90925 0.767687 8.23744 1.09588C8.56563 1.42406 8.75 1.86918 8.75 2.33331V10.5ZM9.91667 10.5H14V7.58331H9.91667V10.5ZM11.0833 2.91665H9.91667V6.41665H14V5.83331C13.9991 5.06005 13.6915 4.31872 13.1447 3.77194C12.5979 3.22516 11.8566 2.91757 11.0833 2.91665ZM1.78383 11.6666C1.76246 11.7624 1.75113 11.8602 1.75 11.9583C1.75 12.3451 1.90365 12.716 2.17714 12.9895C2.45063 13.263 2.82156 13.4166 3.20833 13.4166C3.59511 13.4166 3.96604 13.263 4.23953 12.9895C4.51302 12.716 4.66667 12.3451 4.66667 11.9583C4.66554 11.8602 4.6542 11.7624 4.63283 11.6666H1.78383ZM9.9505 11.6666C9.92913 11.7624 9.91779 11.8602 9.91667 11.9583C9.91667 12.3451 10.0703 12.716 10.3438 12.9895C10.6173 13.263 10.9882 13.4166 11.375 13.4166C11.7618 13.4166 12.1327 13.263 12.4062 12.9895C12.6797 12.716 12.8333 12.3451 12.8333 11.9583C12.8322 11.8602 12.8209 11.7624 12.7995 11.6666H9.9505Z" fill="white"/>
</g>
<defs>
<clipPath id="clip0_418_6021">
<rect width="14" height="14" fill="white"/>
</clipPath>
</defs>
</svg>
